<?xml version="1.0" encoding="utf-8"?>
<!-- Generator: Adobe Illustrator 22.0.0, SVG Export Plug-In . SVG Version: 6.00 Build 0)  -->
<svg version="1.1" id="Capa_1" xmlns="http://www.w3.org/2000/svg" xmlns:xlink="http://www.w3.org/1999/xlink" x="0px" y="0px"
	 viewBox="0 0 380.1 380.1" style="enable-background:new 0 0 380.1 380.1;" xml:space="preserve">
<style type="text/css">
	.st0{fill:#434343;}
</style>
<path class="st0" d="M376.1,162.5c0,0-33.5-25.7-33.5-25.8c0,0-2.8-2.7-2.8-8.2c0-14.1,0-56.3,0-56.3c0-6.3-5.2-11.5-11.5-11.5H287
	c-6.3,0-11.5,5.2-11.5,11.5c0,0,0,7.1,0,9.4c0,2.6-1.4,1.4-1.4,1.4l-76.2-59.4c-2-1.5-4.3-2.3-6.7-2.3c-4,0-7.6,2.2-9.5,5.9
	l-17.8,33.9c-2.2,4.1-2.2,9.9,0,14l23.1,44.2c0,0,1.7,2.3-0.6,6.3c-6,10.6-28.9,39.5-28.9,39.5c-2.8,3.8-3.6,9.6-2,14l6.1,16.8
	c0,0,2,5.4-1.8,2.2c-7.4-6.1-20.4-15.9-27-21.4c-3.6-3-0.8-6.6-0.8-6.6l22.8-39.8c2.7-4.7,2.1-11-1.4-15.1L125,82.4
	c-2.2-2.6-5.5-4.1-8.9-4.1c-2.6,0-5.1,0.9-7.2,2.4L4,162.5c-4.1,3.2-4.5,7.3-3.5,10.1c1,2.8,3.8,5.8,9,5.8h23.1c0,0,2.4-0.2,2.4,2.2
	c0,41.7,0,166.6,0,166.6c0,6.3,5.2,11.5,11.5,11.5H149c6.3,0,11.5-5.2,11.5-11.5v-49.1c0-2.3-0.1-6-0.1-8.2c0-0.2-0.3-15.3,8.6-24.4
	c4.7-4.9,11.3-7.2,19.9-7.2c9.2,0,16.4,2.6,21.5,7.7c9.2,9.2,9.2,24,9.2,24.1c0,2.2-0.1,5.9-0.1,8.1v49.1c0,6.3,5.2,11.5,11.5,11.5
	h102.6c6.3,0,11.5-5.2,11.5-11.5c0,0,0-124.1,0-165.5c0-3.6,3.1-3.4,3.1-3.4h22.4c5.2,0,8-3,9-5.8
	C380.6,169.8,380.2,165.7,376.1,162.5z M290.5,77.8c0-2,2-2.1,2-2.1h29.7c0,0,2.6-0.1,2.6,2.7c0,9.9,0,29.1,0,39.8
	c0,4.4-2.5,2.5-2.5,2.5l-31.4-24.5c-0.1-0.2-0.4-0.6-0.4-2C290.5,94.2,290.5,82.2,290.5,77.8z M341.7,163.4
	c-6.3,0-11.5,5.2-11.5,11.5V340c0,0,0.5,3.7-3.6,3.7c-21.9,0-64.8,0-87.6,0c-4.4,0-4.4-4.1-4.4-4.1v-41.5c0-2.2,0-5.7,0-7.9
	c0-0.9,0.1-21-13.5-34.8c-8-8.1-18.9-12.2-32.2-12.2c-12.8,0-23.1,4-30.7,11.9c-13.3,13.8-12.8,34.4-12.7,35.3
	c0.1,2.1,0.1,5.6,0.1,7.7v42.8c0,0,0.3,2.8-4.4,2.8c-22.8,0-65.2,0-86.9,0c-5,0-4.4-4.1-4.4-4.1V174.9c0-6.3-5.2-11.5-11.5-11.5
	c0,0-5.6,0-7.5,0c-3,0-0.5-2.4-0.5-2.4l83.3-64.9c0,0,1.8-1.5,3-0.1c3.9,4.4,16,18.8,20.6,24.1c2.1,2.5-0.4,4.3-0.4,4.3l-64.3,41.2
	c-2.8,1.8-3.6,5.5-1.8,8.3c1.1,1.8,3.1,2.8,5.1,2.8c1.1,0,2.2-0.3,3.2-0.9c0,0,35-22.1,46.5-29.8c2.6-1.8,2.4,0.4,2.4,0.4l-13,22.7
	c-2.9,5.1-1.6,11.9,3,15.6l53.4,42.2c2,1.6,4,2.3,6.1,2.3h0c2.6,0,5.1-1.3,6.6-3.4c1.2-1.7,2.3-4.5,0.8-8.7l-15.6-42.8
	c0-0.1,0-0.3,0.1-0.4l31.4-42.9c3-4.1,3.4-10.2,1.1-14.7c0,0-8-15.6-10.8-20.8c-2.8-5.1,1.7-2.2,1.7-2.2l110.1,82.2
	c1.1,0.8,2.3,1.2,3.6,1.2c1.8,0,3.6-0.8,4.8-2.4c2-2.7,1.4-6.4-1.2-8.4L179.2,68.1c0,0-1.8-1.1-0.6-3.2c2.7-4.9,9.7-18.6,12.5-23.7
	c1.2-2.3,3.5-1,3.5-1L348.5,160c0,0,3,3.4-1.3,3.4C345.8,163.4,341.7,163.4,341.7,163.4z"/>
</svg>
