<?xml version="1.0" encoding="utf-8"?>
<!-- Generator: Adobe Illustrator 22.0.0, SVG Export Plug-In . SVG Version: 6.00 Build 0)  -->
<svg version="1.1" id="Capa_1" xmlns="http://www.w3.org/2000/svg" xmlns:xlink="http://www.w3.org/1999/xlink" x="0px" y="0px"
	 viewBox="0 0 512 512" style="enable-background:new 0 0 512 512;" xml:space="preserve">
<style type="text/css">
	.st0{fill:#FFFFFF;}
</style>
<g>
	<g>
		<path class="st0" d="M106,0H15C6.7,0,0,6.7,0,15v91c0,8.3,6.7,15,15,15s15-6.7,15-15V30h76c8.3,0,15-6.7,15-15S114.3,0,106,0z"/>
	</g>
</g>
<g>
	<g>
		<path class="st0" d="M497,0h-90c-8.3,0-15,6.7-15,15s6.7,15,15,15h75v76c0,8.3,6.7,15,15,15s15-6.7,15-15V15
			C512,6.7,505.3,0,497,0z"/>
	</g>
</g>
<g>
	<g>
		<path class="st0" d="M106,482H30v-76c0-8.3-6.7-15-15-15s-15,6.7-15,15v91c0,8.3,6.7,15,15,15h91c8.3,0,15-6.7,15-15
			S114.3,482,106,482z"/>
	</g>
</g>
<g>
	<g>
		<path class="st0" d="M497,391c-8.3,0-15,6.7-15,15v76h-75c-8.3,0-15,6.7-15,15s6.7,15,15,15h90c8.3,0,15-6.7,15-15v-91
			C512,397.7,505.3,391,497,391z"/>
	</g>
</g>
<g>
	<g>
		<path class="st0" d="M262.7,105c-83.3,0-151,67.7-151,151s67.7,151,151,151s151-67.7,151-151S345.9,105,262.7,105z M262.7,306.3
			c-27.8,0-50.3-22.6-50.3-50.3s22.6-50.3,50.3-50.3S313,228.2,313,256S290.4,306.3,262.7,306.3z"/>
	</g>
</g>
</svg>
