<?xml version="1.0" encoding="utf-8"?>
<!-- Generator: Adobe Illustrator 22.0.0, SVG Export Plug-In . SVG Version: 6.00 Build 0)  -->
<svg version="1.1" id="Capa_1" xmlns="http://www.w3.org/2000/svg" xmlns:xlink="http://www.w3.org/1999/xlink" x="0px" y="0px"
	 viewBox="0 0 492.8 426.8" style="enable-background:new 0 0 492.8 426.8;" xml:space="preserve">
<style type="text/css">
	.st0{fill:#434343;}
</style>
<g>
	<path class="st0" d="M256.4,197c-24.1-9.6-31.2-15.5-31.2-26.2c0-8.4,6.4-18.4,24.3-18.4c15.9,0,28.2,6.4,28.2,6.4
		c1.4,0.7,2.7,1.1,4.1,1.1c3.4,0,6.6-2,8-5.5l4.3-11.1c1.6-4.1-0.7-7.7-3.6-8.9c-9.8-4.3-29.1-7.5-29.1-7.5c-0.2,0-1.4-0.2-1.4-1.6
		v-16.2c0-5-4.1-8.9-9.1-8.9h-8c-5,0-9.1,4.1-9.1,8.9v17.1c0,1.4-1.4,1.8-2,2c-24.3,5.7-39.4,23.4-39.4,46c0,28,23,40.5,48,50.1
		c20,7.7,28,15.7,28,27.3c0,12.7-11.6,21.4-28,21.4c-14.1,0-33.2-8.9-33.2-9.1c-1.1-0.7-2.5-0.9-3.9-0.9c-3.6,0-6.8,2.3-8,5.7
		l-4.1,11.4c-1.6,4.3,0.9,7.7,3.6,9.1c11.6,6.1,34.4,9.6,35.3,9.8c0.2,0,1.6,0.5,1.6,1.8v17.1c0,5,4.1,8.9,9.1,8.9h8.2
		c5,0,9.1-4.1,9.1-8.9v-18c0-1.6,1.1-1.8,1.6-1.8c25.9-5.9,41.6-24.8,41.6-48.5C301.7,225.2,288.3,209.5,256.4,197z"/>
	<path class="st0" d="M246.4,0C128.6,0,33,95.6,33,213.4s95.6,213.4,213.4,213.4s213.4-95.6,213.4-213.4S364.2,0,246.4,0z
		 M246.4,377.4c-90.5,0-164-73.5-164-164s73.5-164,164-164s164,73.5,164,164S336.9,377.4,246.4,377.4z"/>
</g>
</svg>
