<?xml version="1.0" encoding="utf-8"?>
<!-- Generator: Adobe Illustrator 22.0.0, SVG Export Plug-In . SVG Version: 6.00 Build 0)  -->
<svg version="1.1" id="Capa_1" xmlns="http://www.w3.org/2000/svg" xmlns:xlink="http://www.w3.org/1999/xlink" x="0px" y="0px"
	 viewBox="0 0 512 512" style="enable-background:new 0 0 512 512;" xml:space="preserve">
<style type="text/css">
	.st0{fill:#434343;}
</style>
<g>
	<g>
		<g>
			<polygon class="st0" points="117.3,322.3 117.3,511.8 157.2,511.8 157.2,281.6 			"/>
			<polygon class="st0" points="195.2,511.8 235.2,511.8 235.2,307.3 195.2,267.3 			"/>
			<polygon class="st0" points="38.3,511.8 78.3,511.8 78.3,362.1 38.3,402.8 			"/>
			<polygon class="st0" points="392.1,0.2 392.1,40.1 444.8,40.1 262.9,222 182.3,141.3 0,329 28.7,356.9 182.7,198.3 262.9,278.5 
				472,69.4 472,119.1 512,119.1 512,0.2 			"/>
			<polygon class="st0" points="431.1,166.9 431.1,511.8 471,511.8 471,161.1 436.9,161.1 			"/>
			<polygon class="st0" points="273.2,511.8 313.1,511.8 313.1,284.8 273.2,324.8 			"/>
			<polygon class="st0" points="352.1,511.8 392.1,511.8 392.1,205.9 352.1,245.9 			"/>
		</g>
	</g>
</g>
</svg>
